<?xml version="1.0" encoding="UTF-8"?>
<svg version="1.1" xmlns="http://www.w3.org/2000/svg" width="96" height="96">
<path d="M0 0 C9.0346144 7.74010248 13.78648505 15.72350625 17.3671875 26.9921875 C12.21429271 32.11700112 7.62891856 35.72116938 0.3671875 36.9921875 C-6.35299155 36.95344839 -12.24906313 35.39172867 -18.4453125 32.9296875 C-19.24211426 32.62530762 -20.03891602 32.32092773 -20.85986328 32.00732422 C-23.45540109 31.01368453 -26.04407736 30.00340478 -28.6328125 28.9921875 C-31.49156953 27.88736575 -34.35180324 26.78656115 -37.21362305 25.68969727 C-39.04124739 24.98818973 -40.86702182 24.28183863 -42.69067383 23.57006836 C-43.52493896 23.2478833 -44.3592041 22.92569824 -45.21875 22.59375 C-45.9514209 22.30838379 -46.6840918 22.02301758 -47.43896484 21.72900391 C-56.89188933 18.55418462 -65.09947547 19.81563398 -73.8984375 24.09375 C-74.75695312 24.53847656 -74.75695312 24.53847656 -75.6328125 24.9921875 C-72.36959735 12.88394182 -65.37200715 3.42945874 -54.7578125 -3.2578125 C-37.31422777 -13.1990652 -16.13929712 -12.30800997 0 0 Z " fill="#376494" transform="translate(77.6328125,10.0078125)"/>
<path d="M0 0 C9.46840114 3.89698744 18.92406701 7.11612981 29.03149414 3.59570312 C31.68397709 2.38909683 34.26126444 1.12312427 36.81274414 -0.28320312 C34.16357811 10.0485444 26.55767374 19.23419039 17.53930664 24.70117188 C4.26624859 31.89044095 -8.29686634 33.47695183 -22.95288086 29.74414062 C-34.93601989 25.93790202 -44.43379885 18.31077217 -50.41870117 7.21484375 C-54.2252555 -0.24273665 -54.2252555 -0.24273665 -54.10522461 -3.52929688 C-52.89119398 -5.84887029 -51.56583858 -6.66230436 -49.31225586 -7.97070312 C-48.61358398 -8.38707031 -47.91491211 -8.8034375 -47.19506836 -9.23242188 C-32.82556933 -16.75264607 -13.39783565 -5.53761505 0 0 Z " fill="#082547" transform="translate(56.187255859375,63.283203125)"/>
<path d="M0 0 C16.8854089 7.06310845 16.8854089 7.06310845 34.5546875 4.828125 C37.62266605 3.21819566 39.96034939 1.10952463 42.52734375 -1.20703125 C43.18734375 -1.20703125 43.84734375 -1.20703125 44.52734375 -1.20703125 C44.60885119 0.85480508 44.66676315 2.91758224 44.71484375 4.98046875 C44.76705078 6.70330078 44.76705078 6.70330078 44.8203125 8.4609375 C44.41853622 13.03047304 42.95302937 15.49375524 39.58984375 18.55859375 C38.90921875 19.0484375 38.22859375 19.53828125 37.52734375 20.04296875 C36.84671875 20.543125 36.16609375 21.04328125 35.46484375 21.55859375 C30.30472994 24.84608561 24.40518267 24.35966622 18.52734375 23.79296875 C8.97361314 21.45906652 -0.17906675 17.40695105 -9.24414062 13.6484375 C-24.23143116 7.4172826 -24.23143116 7.4172826 -40.02734375 8.625 C-42.23928467 9.59317742 -44.3511809 10.64191084 -46.47265625 11.79296875 C-47.80460167 12.46240406 -49.13753563 13.12988871 -50.47265625 13.79296875 C-52.7217457 9.29478985 -52.175849 3.650317 -51.47265625 -1.20703125 C-48.60818777 -6.00209761 -43.11798612 -8.34565261 -37.88671875 -9.7890625 C-24.90132404 -12.03734281 -11.74458516 -4.73823927 0 0 Z " fill="#144173" transform="translate(51.47265625,42.20703125)"/>
</svg>
